<?xml version="1.0" encoding="utf-8"?>
<!-- Generator: Adobe Illustrator 16.0.0, SVG Export Plug-In . SVG Version: 6.00 Build 0)  -->
<!DOCTYPE svg PUBLIC "-//W3C//DTD SVG 1.1//EN" "http://www.w3.org/Graphics/SVG/1.1/DTD/svg11.dtd">
<svg version="1.1" id="Layer_1" xmlns="http://www.w3.org/2000/svg" xmlns:xlink="http://www.w3.org/1999/xlink" x="0px" y="0px"
	 width="339.667px" height="113.333px" viewBox="0 0 339.667 113.333" enable-background="new 0 0 339.667 113.333"
	 xml:space="preserve">
<g>
	<path d="M13.447,82.023V31.763h23.762c9.361,0,15.265,6.553,15.265,16.058S46.57,63.878,37.209,63.878H24.392v18.146H13.447z
		 M24.392,54.373h11.521c3.24,0,5.257-1.728,5.257-4.968v-3.169c0-3.24-2.017-4.968-5.257-4.968H24.392V54.373z"/>
	<path d="M71.623,82.023H60.678V31.763h23.834c9.289,0,15.193,6.48,15.193,16.058c0,6.769-3.024,12.169-9.145,14.474l9.865,19.729
		H88.257L79.472,63.59h-7.849V82.023z M83.144,54.373c3.24,0,5.257-1.728,5.257-4.968v-3.169c0-3.24-2.017-4.968-5.257-4.968H71.623
		v13.104H83.144z"/>
	<path d="M109.206,82.023V31.763h34.203v9.721h-23.258v10.226h19.946v9.648h-19.946v10.945h23.258v9.721H109.206z"/>
	<path d="M152.91,82.023V31.763h10.945v40.54h19.154v9.721H152.91z"/>
	<path d="M186.246,56.894c0-17.066,8.785-25.994,22.106-25.994c13.321,0,22.106,8.928,22.106,25.994
		c0,17.064-8.785,25.994-22.106,25.994C195.031,82.888,186.246,73.958,186.246,56.894z M218.865,60.638v-7.488
		c0-7.993-3.96-12.529-10.513-12.529c-6.552,0-10.513,4.536-10.513,12.529v7.488c0,7.992,3.96,12.529,10.513,12.529
		C214.905,73.167,218.865,68.63,218.865,60.638z"/>
	<path d="M268.4,82.023L264.8,70.07h-16.777l-3.6,11.953h-11.089l16.562-50.333h13.537l16.346,50.333H268.4z M256.519,41.7h-0.36
		l-5.544,19.082h11.521L256.519,41.7z"/>
	<path d="M286.757,31.763h18.938c13.321,0,22.106,8.426,22.106,25.131s-8.785,25.13-22.106,25.13h-18.938V31.763z M305.695,72.303
		c6.481,0,10.513-3.528,10.513-11.521v-7.777c0-7.992-4.032-11.521-10.513-11.521h-7.993v30.819H305.695z"/>
</g>
</svg>
