<?xml version="1.0" encoding="utf-8"?>
<!-- Generator: Adobe Illustrator 16.0.0, SVG Export Plug-In . SVG Version: 6.00 Build 0)  -->
<!DOCTYPE svg PUBLIC "-//W3C//DTD SVG 1.1//EN" "http://www.w3.org/Graphics/SVG/1.1/DTD/svg11.dtd">
<svg version="1.1" id="Layer_1" xmlns="http://www.w3.org/2000/svg" xmlns:xlink="http://www.w3.org/1999/xlink" x="0px" y="0px"
	 width="1569.946px" height="1299.907px" viewBox="0 0 1569.946 1299.907" enable-background="new 0 0 1569.946 1299.907"
	 xml:space="preserve">
<polygon fill="#0E955E" points="1428.274,982.231 1428.274,918.208 1300.241,940.224 "/>
<polygon fill="#0E955E" points="1428.274,1095.964 1428.274,1043.533 1300.241,1063.271 "/>
<polygon fill="#FF8EA2" points="389.417,208.419 389.417,237.097 389.417,265.773 418.095,265.773 418.095,237.097 446.771,237.097 
	446.771,208.419 418.095,208.419 "/>
<rect x="227.024" y="250.6" fill="#FF8EA2" width="26.008" height="234.532"/>
<rect x="282.044" y="317.625" fill="#FF8EA2" width="26.01" height="167.507"/>
<rect x="336.564" y="386.15" fill="#FF8EA2" width="26.01" height="98.981"/>
<rect x="392.085" y="456.176" fill="#FF8EA2" width="26.009" height="28.956"/>
<polygon fill="#FF8EA2" points="71.175,80.679 599.973,80.679 634.648,80.679 634.648,66.075 634.607,66.075 634.607,48.651 
	39.188,48.651 39.188,66.075 39.147,66.075 39.147,80.679 "/>
<polygon fill="#FF8EA2" points="599.973,113.324 242.222,113.324 39.147,113.324 39.147,123.396 39.188,123.396 39.188,160.246 
	634.607,160.246 634.607,123.396 634.648,123.396 634.648,113.324 "/>
<polygon fill="#FF8EA2" points="88.433,220.258 88.433,202.834 53.798,202.834 53.798,234.863 53.798,830.082 53.798,926.119 
	53.798,998.145 53.798,1045.066 88.433,1045.066 88.433,1008.217 88.474,1008.217 88.474,220.258 "/>
<polygon fill="#FF8EA2" points="171,1045.066 171,953.129 171,871.098 171,831.082 171,747.719 171,704.703 171,623.951 171,416.43 
	171,234.863 171,202.834 139.013,202.834 139.013,220.258 138.973,220.258 138.973,1008.217 139.013,1008.217 139.013,1045.066 "/>
<polygon fill="#FF8EA2" points="687.484,429.408 687.484,387.727 518.771,332.373 518.771,372.388 "/>
<polygon fill="#FF8EA2" points="687.484,261.349 518.771,205.995 518.771,249.01 687.484,303.031 "/>
<polygon fill="#FF8EA2" points="683.158,691.449 683.158,511.939 655.146,483.93 555.125,483.93 555.125,483.648 523.098,483.648 
	523.098,691.449 "/>
<polygon fill="#FF8EA2" points="394.554,775.248 393.775,775.248 222.803,730.253 221.554,730.253 221.554,776.211 394.554,776.211 
	"/>
<polygon fill="#FF8EA2" points="674.97,993.618 674.97,897.581 640.294,897.581 362.574,897.581 362.574,993.618 640.294,993.618 
	"/>
<polygon fill="#48B2E8" points="1068.948,454.369 1039.938,425.361 1039.938,524.119 1068.948,524.119 "/>
<polygon fill="#48B2E8" points="1095.457,495.162 1095.457,524.119 1124.412,524.119 "/>
<polygon fill="#48B2E8" points="1014.428,385.067 985.417,356.057 985.417,524.119 1014.428,524.119 "/>
<polygon fill="#48B2E8" points="959.407,316.598 930.396,289.586 930.396,524.119 959.407,524.119 "/>
<polygon fill="#48B2E8" points="781.343,344.608 781.343,524.119 904.725,524.119 904.725,247.406 874.376,219.063 751.661,219.063 
	753.331,316.598 "/>
<polygon fill="#48B2E8" points="786.783,993.618 786.783,1076.98 955.496,1047.639 "/>
<polygon fill="#48B2E8" points="786.783,1116.996 785.542,1199.715 955.496,1174.017 "/>
<polygon fill="#48B2E8" points="1185.292,772.266 1185.292,566.135 1127.597,566.135 1098.642,566.135 1072.133,566.135 
	1043.122,566.135 1017.612,566.135 988.602,566.135 962.592,566.135 933.58,566.135 907.909,566.135 785.542,566.135 
	785.542,732.171 822.247,743.924 785.542,750.308 785.542,857.896 822.247,870.302 785.542,875.852 785.542,940.328 
	861.555,940.328 880.898,940.328 1185.292,940.328 1185.292,895.313 1185.292,868.303 907.909,868.303 907.909,772.266 "/>
<polygon fill="#0E955E" points="1315.307,733.093 1315.307,816.209 1443.248,858.194 1443.248,733.594 1443.308,733.594 
	1443.308,733.093 "/>
<polygon fill="#0E955E" points="985.417,42.552 985.417,224.12 1085.438,224.12 1085.438,126.584 1206.483,126.584 
	1236.832,154.928 1236.495,197.108 1262.503,197.108 1290.515,225.12 1290.515,264.133 1317.524,264.133 1346.258,292.867 
	1346.258,332.659 1372.045,332.659 1401.166,361.781 1401.166,402.684 1427.564,402.684 1456.52,431.641 1514.215,431.641 
	1514.215,42.552 "/>
</svg>
