# WaveFront *.obj file (generated by CINEMA 4D)

mtllib ./r3.mtl

v 78.60141754150391 25.00495338439941 -30
v 49.20151519775391 144.60505676269531 -30
v 95.80161285400391 161.00495910644531 -30
v 119.194091796875 104.20771789550781 0
v 112.62477874755859 92.99010467529297 0
v 102.80419158935547 72.69843292236328 -30
v 132.55224609375 73.50844573974609 0
v 121.20151519775391 120.00495147705078 0
v 97.89619445800781 148.42578125 0
v 120.38499450683594 129.53065490722656 0
v 158.70152282714844 29.70515251159668 -30
v 170.60140991210938 22.80475425720215 -30
v 134.65359497070312 11.58965682983398 -30
v 116.75602722167969 139.16961669921875 0
v 99.66526031494141 87.32314300537109 -30
v 146.80162048339844 144.00495910644531 -30
v 140.33917236328125 89.77576446533203 -30
v 150.69549560546875 108.61740875244141 -30
v 111.35308837890625 144.56141662597656 0
v 78.60141754150391 147.60505676269531 -30
v 78.60141754150391 87.60505676269531 -30
v 162.64210510253906 25.36674690246582 -30
v 112.62477874755859 92.99010467529297 -30
v 145.00131225585938 95.80475616455078 -30
v 150.69549560546875 108.61740875244141 0
v 78.60141754150391 147.60505676269531 0
v 78.60141754150391 87.60505676269531 0
v 119.194091796875 104.20771789550781 -30
v 106.06468963623047 88.79188537597656 -30
v 99.66526031494141 87.32314300537109 0
v 162.64210510253906 25.36674690246582 0
v 33.40121841430664 11.00495338439941 0
v 106.06468963623047 88.79188537597656 0
v 128.93643188476562 81.66001892089844 -30
v 99.20151519775391 75.00495147705078 -30
v 97.89619445800781 148.42578125 -30
v 123.60141754150391 79.60505676269531 -30
v 33.40121841430664 23.00495338439941 0
v 49.20151519775391 25.00495338439941 0
v 49.20151519775391 144.60505676269531 0
v 34.20151519775391 147.40484619140625 0
v 34.20151519775391 159.60505676269531 0
v 170.60140991210938 22.80475425720215 0
v 95.80161285400391 161.00495910644531 0
v 119.42005920410156 159.1754150390625 0
v 151.31643676757812 132.67842102050781 0
v 119.42005920410156 159.1754150390625 -30
v 136.44682312011719 153.43983459472656 0
v 97.00131988525391 11.00495338439941 0
v 146.80162048339844 144.00495910644531 0
v 120.38499450683594 129.53065490722656 -30
v 33.40121841430664 11.00495338439941 -30
v 170.60140991210938 11.00495338439941 -30
v 78.60141754150391 75.00495147705078 0
v 170.60140991210938 11.00495338439941 0
v 33.40121841430664 23.00495338439941 -30
v 99.20151519775391 75.00495147705078 0
v 152.40121459960938 121.40485382080078 0
v 137.80162048339844 67.20515441894531 -30
v 111.35308837890625 144.56141662597656 -30
v 151.31643676757812 132.67842102050781 -30
v 145.00131225585938 95.80475616455078 0
v 132.55224609375 73.50844573974609 -30
v 140.33917236328125 89.77576446533203 0
v 97.00131988525391 23.00495338439941 -30
v 134.65359497070312 11.58965682983398 0
v 128.93643188476562 81.66001892089844 0
v 135.51954650878906 85.5323486328125 -30
v 123.60141754150391 79.60505676269531 0
v 132.10952758789062 14.00985813140869 0
v 136.44682312011719 153.43983459472656 -30
v 137.80162048339844 67.20515441894531 0
v 116.75602722167969 139.16961669921875 -30
v 34.20151519775391 159.60505676269531 -30
v 158.70152282714844 29.70515251159668 0
v 97.00131988525391 23.00495338439941 0
v 49.20151519775391 25.00495338439941 -30
v 78.60141754150391 75.00495147705078 -30
v 135.51954650878906 85.5323486328125 0
v 34.20151519775391 147.40484619140625 -30
v 78.60141754150391 25.00495338439941 0
v 97.00131988525391 11.00495338439941 -30
v 129.90121459960938 17.50495338439941 0
v 109.40121459960938 63.60505294799805 0
v 152.40121459960938 121.40485382080078 -30
v 102.80419158935547 72.69843292236328 0
v 132.10952758789062 14.00985813140869 -30
v 129.90121459960938 17.50495338439941 -30
v 121.20151519775391 120.00495147705078 -30
v 109.40121459960938 63.60505294799805 -30
# 90 vertices

vn -0.72093504667282 0.69300258159637 0
vn -0.94665962457657 0.32223519682884 0
vn 0 0 0
vn 0 0 1
vn -1 0 0
vn 0 0 -1
vn -0.94665962457657 0.32223522663116 0
vn -0.99843913316727 0.05585058405995 0
vn -0.9998876452446 -0.01499078329653 0
vn 0.8417044878006 0.53993844985962 0
vn 0.83392465114594 0.55187827348709 0
vn 0.78924226760864 0.61408197879791 0
vn 0.10805974900723 0.99414438009262 0
vn 0.10805974900723 0.99414438009262 0
vn -0.97528427839279 -0.22095370292664 0
vn -0.84014117717743 -0.54236781597137 0
vn 0.43595862388611 -0.89996671676636 0
vn 0.35944125056267 -0.93316769599915 0
vn 0.35944125056267 -0.93316769599915 0
vn -0.50726127624512 -0.86179232597351 0
vn 0.82217407226562 0.56923609972 0
vn 0.95962578058243 0.281279951334 0
vn 0.98198467493057 0.18896049261093 0
vn -0.17181704938412 -0.98512887954712 0
vn 0 0 -1
vn 0.44577410817146 0.89514547586441 0
vn 0.56614863872528 0.824303150177 0
vn 0 -1 0
vn -0.06441252678633 -0.99792337417603 0
vn 0.04249766469002 -0.99909657239914 0
vn 1 0 0
vn 1 0 0
vn 0.01338257826865 0.99991047382355 0
vn 0.01338257826865 0.99991047382355 0
vn 0 0 1
vn -0.33316579461098 0.94286823272705 0
vn -0.22369542717934 0.97465908527374 0
vn -0.43967121839523 0.89815878868103 0
vn 0.65655529499054 -0.75427794456482 0
vn 0.50994873046875 -0.86020481586456 0
vn 0.56294429302216 0.82649487257004 0
vn 0.63691157102585 0.77093684673309 0
vn 0.70599836111069 0.70821350812912 0
vn -0.1255778670311 0.99208378791809 0
vn -0.1255778670311 0.99208378791809 0
vn -0.18348377943039 -0.98302274942398 0
vn -0.0227197855711 0.99974185228348 0
vn -0.0227197855711 0.99974185228348 0
vn 0.02728980593383 0.99962759017944 0
vn 0.15897904336452 0.98728197813034 0
vn 0.24019812047482 0.97072386741638 0
vn 0.04249766841531 -0.99909657239914 0
vn 0.82217407226562 0.56923609972 0
vn -0.68625247478485 -0.72736340761185 0
vn -0.53918725252151 -0.84218591451645 0
vn -0.18638435006142 -0.98247689008713 0
vn 0.99983185529709 -0.01833874545991 0
vn 0.97422963380814 -0.2255585193634 0
vn 0.94819408655167 -0.31769156455994 0
vn 0.85862201452255 -0.5126091837883 0
vn 0.85862201452255 -0.51260924339294 0
vn -0.57313585281372 -0.81946039199829 0
vn -0.83044058084488 -0.5571072101593 0
vn -0.8754934668541 -0.48322996497154 0
vn 0.72763925790787 -0.68595999479294 0
vn 0.56294429302216 0.82649487257004 0
vn 0.80654454231262 0.591173350811 0
vn 0.74023050069809 0.67235314846039 0
vn -0.86631351709366 -0.49950066208839 0
vn 0.3064042031765 0.9519014954567 0
vn 0.3064042031765 0.9519014954567 0
vn -0.0162631906569 -0.99986773729324 0
vn -0.0162631906569 -0.99986773729324 0
vn -0.29544278979301 -0.95536041259766 0
vn -0.68625241518021 -0.72736346721649 0
vn 0.10805974900723 0.99414438009262 0
vn 0.74023032188416 0.67235338687897 0
# 77 normals

vt 0 1 0
vt 0 0 0
vt 0.0113493045792 0 0
vt 0.0113493045792 1 0
vt 0.02307202666998 0 0
vt 0.02307202666998 1 0
vt 0.03775900229812 0 0
vt 0.03775900229812 1 0
vt 0.05325521156192 0 0
vt 0.05325521156192 1 0
vt 0.07251286506653 0 0
vt 0.07251286506653 1 0
vt 0.09626591950655 0 0
vt 0.09626591950655 1 0
vt 0.11541311442852 0 0
vt 0.11541311442852 1 0
vt 0.1392854899168 0 0
vt 0.1392854899168 1 0
vt 0.16912055015564 0 0
vt 0.16912055015564 1 0
vt 0.19082227349281 0 0
vt 0.19082227349281 1 0
vt 0.20838809013367 0 0
vt 0.20838809013367 1 0
vt 0.22251220047474 0 0
vt 0.22251220047474 1 0
vt 0.23590092360973 0 0
vt 0.23590092360973 1 0
vt 0.24659961462021 0 0
vt 0.24659961462021 1 0
vt 0.25492480397224 0 0
vt 0.25492480397224 1 0
vt 0.26309689879417 0 0
vt 0.26309689879417 1 0
vt 0.27124944329262 0 0
vt 0.27124944329262 1 0
vt 0.27953878045082 0 0
vt 0.27953878045082 1 0
vt 0.28803664445877 0 0
vt 0.28803664445877 1 0
vt 0.29905125498772 0 0
vt 0.29905125498772 1 0
vt 0.31061217188835 0 0
vt 0.31061217188835 1 0
vt 0.3253456056118 0 0
vt 0.3253456056118 1 0
vt 0.34390330314636 0 0
vt 0.34390330314636 1 0
vt 0.36411181092262 0 0
vt 0.36411181092262 1 0
vt 0.38940915465355 0 0
vt 0.38940915465355 1 0
vt 0.41728457808495 0 0
vt 0.41728457808495 1 0
vt 0.44065797328949 0 0
vt 0.44065797328949 1 0
vt 0.45814138650894 0 0
vt 0.45814138650894 1 0
vt 0.46825942397118 0 0
vt 0.46825942397118 1 0
vt 0.79133468866348 0 0
vt 0.79133468866348 1 0
vt 0.81346935033798 0 0
vt 0.81346935033798 1 0
vt 0.85385930538177 0 0
vt 0.85385930538177 1 0
vt 0.89047342538834 0 0
vt 0.89047342538834 1 0
vt 0.90483176708221 0 0
vt 0.90483176708221 1 0
vt 0.91853320598602 0 0
vt 0.91853320598602 1 0
vt 0.92954897880554 0 0
vt 0.92954897880554 1 0
vt 0.94029140472412 0 0
vt 0.94029140472412 1 0
vt 0.95085537433624 0 0
vt 0.95085537433624 1 0
vt 0.96134066581726 0 0
vt 0.96134066581726 1 0
vt 0.97184932231903 0 0
vt 0.97184932231903 1 0
vt 0.98248267173767 0 0
vt 0.98248267173767 1 0
vt 0.99114632606506 0 0
vt 0.99114632606506 1 0
vt 1 0 0
vt 1 1 0
vt 0.02172257006168 0 0
vt 0.02172257006168 1 0
vt 0.18484953045845 0 0
vt 0.18484953045845 1 0
vt 0.20566192269325 0 0
vt 0.20566192269325 1 0
vt 0.22230222821236 0 0
vt 0.22230222821236 1 0
vt 0.26185637712479 0 0
vt 0.26185637712479 1 0
vt 0.27331656217575 0 0
vt 0.27331656217575 1 0
vt 0.28287971019745 0 0
vt 0.28287971019745 1 0
vt 0.30636504292488 0 0
vt 0.30636504292488 1 0
vt 0.32611882686615 0 0
vt 0.32611882686615 1 0
vt 0.33870747685432 0 0
vt 0.33870747685432 1 0
vt 0.34519430994987 0 0
vt 0.34519430994987 1 0
vt 0.35191416740417 0 0
vt 0.35191416740417 1 0
vt 0.3581260740757 0 0
vt 0.3581260740757 1 0
vt 0.36331957578659 0 0
vt 0.36331957578659 1 0
vt 0.36764776706696 0 0
vt 0.36764776706696 1 0
vt 0.37181082367897 0 0
vt 0.37181082367897 1 0
vt 0.37527817487717 0 0
vt 0.37527817487717 1 0
vt 0.37868067622185 0 0
vt 0.37868067622185 1 0
vt 0.38036701083183 0 0
vt 0.38036701083183 1 0
vt 0.38260769844055 0 0
vt 0.38260769844055 1 0
vt 0.38599917292595 0 0
vt 0.38599917292595 1 0
vt 0.39006328582764 0 0
vt 0.39006328582764 1 0
vt 0.39427945017815 0 0
vt 0.39427945017815 1 0
vt 0.39932718873024 0 0
vt 0.39932718873024 1 0
vt 0.40535068511963 0 0
vt 0.40535068511963 1 0
vt 0.40959548950195 0 0
vt 0.40959548950195 1 0
vt 0.41479912400246 0 0
vt 0.41479912400246 1 0
vt 0.42075800895691 0 0
vt 0.42075800895691 1 0
vt 0.42662328481674 0 0
vt 0.42662328481674 1 0
vt 0.43244281411171 0 0
vt 0.43244281411171 1 0
vt 0.43826541304588 0 0
vt 0.43826541304588 1 0
vt 0.44413986802101 0 0
vt 0.44413986802101 1 0
vt 0.44785961508751 0 0
vt 0.44785961508751 1 0
vt 0.45162931084633 0 0
vt 0.45162931084633 1 0
vt 0.45688197016716 0 0
vt 0.45688197016716 1 0
vt 0.46203735470772 0 0
vt 0.46203735470772 1 0
vt 0.46641981601715 0 0
vt 0.46641981601715 1 0
vt 0.47080451250076 0 0
vt 0.47080451250076 1 0
vt 0.47596809267998 0 0
vt 0.47596809267998 1 0
vt 0.48123463988304 0 0
vt 0.48123463988304 1 0
vt 0.48508802056313 0 0
vt 0.48508802056313 1 0
vt 0.48903650045395 0 0
vt 0.48903650045395 1 0
vt 0.49237361550331 0 0
vt 0.49237361550331 1 0
vt 0.49576845765114 0 0
vt 0.49576845765114 1 0
vt 0.49975380301476 0 0
vt 0.49975380301476 1 0
vt 0.50388836860657 0 0
vt 0.50388836860657 1 0
vt 0.50876003503799 0 0
vt 0.50876003503799 1 0
vt 0.51158320903778 0 0
vt 0.51158320903778 1 0
vt 0.51509165763855 0 0
vt 0.51509165763855 1 0
vt 0.53168821334839 0 0
vt 0.53168821334839 1 0
vt 0.55176025629044 0 0
vt 0.55176025629044 1 0
vt 0.57367223501205 0 0
vt 0.57367223501205 1 0
vt 0.57651263475418 0 0
vt 0.57651263475418 1 0
vt 0.57832819223404 0 0
vt 0.57832819223404 1 0
vt 0.57975643873215 0 0
vt 0.57975643873215 1 0
vt 0.58087205886841 0 0
vt 0.58087205886841 1 0
vt 0.58173340559006 0 0
vt 0.58173340559006 1 0
vt 0.58254110813141 0 0
vt 0.58254110813141 1 0
vt 0.58315509557724 0 0
vt 0.58315509557724 1 0
vt 0.58374667167664 0 0
vt 0.58374667167664 1 0
vt 0.59315299987793 0 0
vt 0.59315299987793 1 0
vt 0.6092472076416 0 0
vt 0.6092472076416 1 0
vt 0.65562105178833 0 0
vt 0.65562105178833 1 0
vt 0.65614748001099 0 0
vt 0.65614748001099 1 0
vt 0.65668445825577 0 0
vt 0.65668445825577 1 0
vt 0.65723925828934 0 0
vt 0.65723925828934 1 0
vt 0.65781831741333 0 0
vt 0.65781831741333 1 0
vt 0.65842741727829 0 0
vt 0.65842741727829 1 0
vt 0.65929460525513 0 0
vt 0.65929460525513 1 0
vt 0.66023367643356 0 0
vt 0.66023367643356 1 0
vt 0.66151988506317 0 0
vt 0.66151988506317 1 0
vt 0.66324281692505 0 0
vt 0.66324281692505 1 0
vt 0.66586714982986 0 0
vt 0.66586714982986 1 0
vt 0.66888624429703 0 0
vt 0.66888624429703 1 0
vt 0.6815590262413 0 0
vt 0.6815590262413 1 0
vt 0.69948774576187 0 0
vt 0.69948774576187 1 0
vt 0.72109460830688 0 0
vt 0.72109460830688 1 0
vt 0.73772066831589 0 0
vt 0.73772066831589 1 0
vt 0.74356079101562 0 0
vt 0.74356079101562 1 0
vt 0.74779212474823 0 0
vt 0.74779212474823 1 0
vt 0.75076878070831 0 0
vt 0.75076878070831 1 0
vt 0.75312083959579 0 0
vt 0.75312083959579 1 0
vt 0.75530916452408 0 0
vt 0.75530916452408 1 0
vt 0.75702524185181 0 0
vt 0.75702524185181 1 0
vt 0.75801545381546 0 0
vt 0.75801545381546 1 0
vt 0.75898081064224 0 0
vt 0.75898081064224 1 0
vt 0.78707808256149 0 0
vt 0.78707808256149 1 0
vt 0.85527491569519 0 0
vt 0.85527491569519 1 0
vt 0.88051903247833 0 0
vt 0.88051903247833 1 0
vt 0.89688622951508 0 0
vt 0.89688622951508 1 0
vt 0.98363274335861 0 0
vt 0.98363274335861 1 0
vt 0 0.08000004291534 0
vt 0.10533533245325 0.09333336353302 0
vt 0.10533533245325 0.89066731929779 0
vt 0.30133467912674 0.51066732406616 0
vt 0.30133467912674 0.42666673660278 0
vt 0.30133467912674 0.09333336353302 0
vt 0.19866867363453 0.99066734313965 0
vt 0.30133467912674 0.9106673002243 0
vt 0.00533533329144 0.90933269262314 0
vt 0.00533533329144 0.99066734313965 0
vt 0.25466799736023 0.99199867248535 0
vt 0.30133467912674 0.99466800689697 0
vt 0.41600266098976 1 0
vt 0.36416625976562 0.91649508476257 0
vt 0.33533534407616 0.91400068998337 0
vt 0.3138342499733 0.91149801015854 0
vt 0.51247066259384 0.9959568977356 0
vt 0.45480546355248 0.9131326675415 0
vt 0.42996650934219 0.9161388874054 0
vt 0.39866867661476 0.91733402013779 0
vt 0.57345896959305 0.98780310153961 0
vt 0.5077600479126 0.89700281620026 0
vt 0.49462759494781 0.90269637107849 0
vt 0.47726714611053 0.90829700231552 0
vt 0.60446429252625 0.98117232322693 0
vt 0.53622537851334 0.87783390283585 0
vt 0.52834063768387 0.88440358638763 0
vt 0.51967912912369 0.89037638902664 0
# 298 texture coordinates

o Extrude.1
usemtl default
f 28/3/2 23/2/1 5/1/1
f 10/5/4 25/3/4 46/4/4
f 40/7/5 2/5/5 39/6/5
f 60/9/6 36/7/6 47/8/6
f 8/11/8 28/9/2 4/10/7
f 89/13/9 28/11/2 8/12/8
f 38/15/5 56/13/5 32/14/5
f 75/17/12 11/15/11 72/16/10
f 76/19/14 65/17/13 81/18/13
f 51/21/15 89/19/9 10/20/15
f 60/23/6 47/21/6 71/22/6
f 73/25/16 51/23/15 10/24/15
f 29/27/6 23/25/6 37/26/6
f 11/29/6 87/27/6 90/28/6
f 69/31/19 37/29/18 67/30/17
f 60/33/20 73/31/16 19/32/20
f 36/35/6 3/33/6 47/34/6
f 2/37/6 74/35/6 3/36/6
f 46/39/23 61/37/22 50/38/21
f 36/41/24 60/39/20 19/40/20
f 1/43/6 65/41/25 82/42/6
f 51/45/6 71/43/6 16/44/6
f 50/47/21 71/45/27 48/46/26
f 14/49/16 73/47/16 10/48/15
f 21/51/6 77/49/6 2/50/6
f 32/53/28 52/51/28 49/52/28
f 28/55/6 51/53/6 24/54/6
f 66/57/4 55/55/4 31/56/4
f 20/59/30 36/57/24 9/58/29
f 21/61/31 20/59/32 26/60/31
f 15/63/33 21/61/34 27/62/33
f 9/65/29 36/63/24 19/64/20
f 86/67/4 7/65/35 69/66/4
f 23/69/6 68/67/6 37/68/6
f 5/71/4 69/69/4 79/70/4
f 42/73/5 74/71/5 41/72/5
f 29/75/38 15/73/37 33/74/36
f 67/77/17 34/75/40 64/76/39
f 56/79/6 77/77/6 52/78/6
f 66/81/4 31/79/4 75/80/4
f 23/83/1 29/81/38 5/82/1
f 7/85/43 63/83/42 69/84/41
f 49/87/4 76/85/4 81/86/4
f 77/89/44 56/2/45 38/1/44
f 2/91/5 77/89/5 39/90/5
f 80/93/46 2/91/46 40/92/46
f 74/95/5 80/93/5 41/94/5
f 3/97/49 74/95/48 42/96/47
f 86/99/4 75/97/4 7/98/35
f 33/101/4 57/99/4 86/100/4
f 10/103/4 50/101/35 48/102/4
f 29/105/6 6/103/6 35/104/6
f 47/107/51 3/105/49 45/106/50
f 77/109/6 1/107/6 52/108/6
f 71/111/27 47/109/51 48/110/26
f 29/113/6 37/111/6 6/112/6
f 10/115/4 4/113/4 62/114/4
f 26/117/52 20/115/30 9/116/29
f 27/119/31 21/117/31 26/118/31
f 19/121/20 73/119/16 14/120/16
f 16/123/53 71/121/27 50/122/21
f 32/125/4 49/123/4 81/124/4
f 33/127/4 27/125/4 54/126/4
f 10/129/15 89/127/9 8/128/8
f 28/131/6 24/129/6 68/130/6
f 61/133/22 16/131/53 50/132/21
f 57/135/56 35/133/55 86/134/54
f 33/137/4 54/135/4 57/136/4
f 2/139/6 80/137/6 74/138/6
f 85/141/57 61/139/22 46/140/23
f 77/143/6 78/141/6 1/142/6
f 18/145/59 85/143/57 25/144/58
f 22/147/6 53/145/6 13/146/6
f 20/149/6 21/147/6 2/148/6
f 24/151/61 18/149/59 62/150/60
f 48/153/26 47/151/51 45/152/50
f 20/155/6 2/153/6 3/154/6
f 83/157/64 88/155/63 66/156/62
f 17/159/65 24/157/61 62/158/60
f 73/161/6 60/159/6 71/160/6
f 4/163/4 5/161/4 79/162/4
f 34/165/40 17/163/65 64/164/39
f 70/167/4 66/165/4 75/166/4
f 51/169/6 61/167/6 18/168/25
f 37/171/18 34/169/40 67/170/17
f 63/173/42 37/171/66 69/172/41
f 33/175/4 86/173/4 69/174/4
f 4/177/4 79/175/4 62/176/4
f 10/179/4 46/177/4 50/178/35
f 59/181/67 63/179/42 7/180/43
f 11/183/6 22/181/6 13/182/6
f 29/185/6 35/183/6 78/184/6
f 22/187/6 12/185/25 53/186/6
f 9/189/4 19/187/4 45/188/4
f 11/191/11 59/189/67 72/190/10
f 72/193/10 59/191/67 7/192/43
f 64/195/39 17/193/65 62/194/60
f 22/197/68 11/195/11 75/196/12
f 55/199/31 53/197/31 43/198/31
f 86/201/54 90/199/69 84/200/69
f 58/203/57 85/201/57 46/202/23
f 84/205/69 90/203/69 83/204/64
f 86/207/4 70/205/4 75/206/4
f 12/209/70 22/207/71 31/208/70
f 53/211/31 12/209/32 43/210/31
f 13/213/74 53/211/73 55/212/72
f 33/215/36 15/213/37 30/214/37
f 4/217/7 28/215/2 5/216/1
f 55/219/4 43/217/4 31/218/4
f 81/221/31 1/219/31 54/220/31
f 36/223/6 20/221/6 3/222/6
f 10/225/4 62/223/4 25/224/4
f 77/227/6 21/225/6 78/226/6
f 51/229/6 18/227/25 24/228/6
f 45/231/50 3/229/49 44/230/49
f 88/233/63 13/231/74 66/232/62
f 62/235/60 18/233/59 25/234/58
f 63/237/6 11/235/6 90/236/6
f 66/239/62 13/237/74 55/238/72
f 90/241/69 88/239/63 83/240/64
f 49/243/31 82/241/31 76/242/31
f 23/245/6 28/243/6 68/244/6
f 6/247/75 90/245/69 86/246/54
f 39/249/45 77/247/44 38/248/44
f 1/251/6 82/249/6 52/250/6
f 21/253/6 29/251/6 78/252/6
f 43/255/70 12/253/70 31/254/70
f 44/257/49 3/255/49 42/256/47
f 35/259/55 6/257/75 86/258/54
f 78/261/28 35/259/28 57/260/56
f 1/263/31 78/261/32 54/262/31
f 65/265/13 1/263/76 81/264/13
f 82/267/31 65/265/32 76/266/31
f 52/269/28 82/267/28 49/268/28
f 56/87/5 52/269/5 32/270/5
f 32/2/4 39/272/4 38/271/4
f 27/274/4 40/273/4 39/272/4
f 54/275/4 27/274/4 39/272/4
f 81/276/4 54/275/4 39/272/4
f 32/2/4 81/276/4 39/272/4
f 26/278/4 44/277/4 40/273/4
f 27/274/4 26/278/4 40/273/4
f 42/280/4 41/279/4 40/273/4
f 44/277/4 42/280/4 40/273/4
f 19/278/4 14/281/4 48/277/4
f 51/278/6 73/282/6 71/281/6
f 5/284/4 33/283/4 69/282/4
f 11/285/6 13/284/6 87/282/6
f 25/286/58 85/285/57 58/282/57
f 26/278/4 9/286/4 44/282/4
f 9/288/4 45/287/4 44/283/4
f 19/289/4 48/288/4 45/283/4
f 14/290/4 10/289/4 48/283/4
f 30/284/33 15/290/33 27/283/33
f 37/292/6 63/291/6 90/287/6
f 41/293/46 80/292/46 40/287/46
f 5/294/1 29/293/38 33/287/36
f 37/288/6 90/294/6 6/287/6
f 51/296/6 16/295/6 61/291/6
f 54/297/28 78/296/28 57/291/56
f 31/298/77 22/297/68 75/291/12

